<svg xmlns="http://www.w3.org/2000/svg" fill="none" viewBox="0 0 24 16"><path fill="#9ABC88" d="M11.494 5.79c0-3.191-2.58-5.79-5.747-5.79S0 2.599 0 5.79c0 3.19 2.58 5.79 5.747 5.79.686 0 1.371-.132 1.992-.362a11.665 11.665 0 01-1.274 4.31.392.392 0 00-.032.328c.032.066.098.132.163.132.098.033.196 0 .326-.099a13.241 13.241 0 004.539-9.474c.033-.198.033-.428.033-.625zM24 5.79C24 2.599 21.42 0 18.253 0c-3.168 0-5.747 2.599-5.747 5.79 0 3.19 2.58 5.79 5.747 5.79.686 0 1.371-.132 1.992-.362a11.666 11.666 0 01-1.274 4.31.392.392 0 00-.032.328c.032.066.098.132.163.132.098.033.196 0 .326-.099a13.24 13.24 0 004.539-9.474C24 6.217 24 5.987 24 5.79z"/></svg>