<svg xmlns="http://www.w3.org/2000/svg" fill="none" viewBox="0 0 24 16"><path fill="#9ABC88" d="M12.506 10.21c0 3.191 2.58 5.79 5.747 5.79S24 13.401 24 10.21c0-3.19-2.58-5.79-5.747-5.79-.686 0-1.371.132-1.992.362.13-1.447.555-2.927 1.274-4.31a.392.392 0 00.032-.328c-.032-.066-.098-.132-.163-.132-.098-.033-.196 0-.326.099a13.24 13.24 0 00-4.539 9.474c-.033.198-.033.428-.033.625zM0 10.21C0 13.401 2.58 16 5.747 16c3.168 0 5.747-2.599 5.747-5.79 0-3.19-2.58-5.79-5.747-5.79-.686 0-1.371.132-1.992.362.131-1.447.555-2.927 1.274-4.31A.392.392 0 005.06.145C5.03.078 4.964.012 4.898.012c-.098-.033-.196 0-.326.099A13.24 13.24 0 00.033 9.585C0 9.783 0 10.013 0 10.21z"/></svg>