<svg xmlns="http://www.w3.org/2000/svg" viewBox="0 0 100 100">
  <style>
    rect {
      fill: #9ABC88;
    }
    path {
      fill: #9ABC88;
    }
    .fill {
      fill: #212121;
    }
    @media (prefers-color-scheme: dark) {
      rect {
        fill: #212121;
      }
      path {
        fill: #212121;
      }
      .fill {
      fill: #EEF5FF;
    }
    }
  </style>
  <rect class="fill" width="100" height="100" rx="10"/>
  <path d="M22.629 74.39c1.798.025 3.733 1.298 3.733 4.035 0 2.752-1.933 4.006-3.73 4.006h-.003a3.701 3.701 0 01-2.668-1.041c-.748-.729-1.142-1.754-1.142-2.965 0-2.772 1.976-4.034 3.81-4.034zm.059-3.155c-3.011 0-6.354 1.675-7.143 5.406h-2.116v-5.076H10v13.72h3.43v-5.543h2.02c.62 4.035 4.03 5.844 7.182 5.844 3.502 0 7.27-2.24 7.27-7.161 0-4.9-3.739-7.162-7.214-7.19M35.93 79.412h2.239c1.563 0 3.012.189 3.012 1.563 0 1.422-1.302 1.537-2.874 1.537H35.93v-3.1zm2.1-2.525h-2.1v-2.662h2.1c1.708 0 2.404.39 2.404 1.346 0 .935-.696 1.316-2.404 1.316zm4.448 1.014c.927-.528 1.413-1.427 1.413-2.633 0-3.731-3.92-3.731-6.026-3.731h-5.363V85.31h6.11c1.794 0 5.998 0 5.998-4.033 0-1.54-.802-2.786-2.132-3.376M53.512 74.062c1.057 0 1.994.34 2.57.934.42.432.643.975.664 1.617h-6.79c.551-2.099 2.22-2.551 3.556-2.551zm.028-2.8c-3.5 0-7.071 2.128-7.16 6.88-.066 2.14.611 3.983 1.957 5.33 1.368 1.368 3.35 2.116 5.593 2.116.063 0 .127 0 .19-.002 1.642 0 3.464-.407 5.132-1.147l.178-.078-.475-2.723-.292.127c-1.44.627-2.984.889-4.736.803-2.352 0-3.961-1.335-4.082-3.348h9.787l.04-.199c.476-2.364.118-4.35-1.038-5.741-1.095-1.32-2.856-2.017-5.094-2.017M65.869 79.186v-7.622h-3.43v13.747h1.179l8.136-7.682v7.655h3.402V71.537h-1.291l-7.996 7.649zM86.46 74.363v3.787H83.92c-1.351 0-2.293-.757-2.293-1.839 0-1.166.921-1.948 2.293-1.948h2.541zm-3.4-2.799c-2.866.028-4.947 2-4.947 4.692 0 1.746 1.104 3.38 2.725 4.088l-3.333 4.28v.66h3.609l3.206-4.253h2.14v4.253H90v-13.72h-6.94zM47.67 45.354a2.004 2.004 0 002.516-1.273c.073-.225.174-1.077.197-1.292.457-4.313 3.304-7.28 7.364-7.28 5.194 0 9.419 4.178 9.419 9.312 0 6.501-5.35 11.789-11.925 11.789-7.111 0-13.078-4.926-14.601-11.506 2.376-.486 4.774-.47 7.03.25zM27.012 58.147c-.245.855-.938 1.257-1.516 1.275-.526.003-.88-.249-1.082-.814-.215-.6.41-3.01 3.61-6.333a26.535 26.535 0 01-1.012 5.872zm31.956-38.795c-12.52 0-22.706 10.07-22.706 22.447 0 .168.01.334.014.501a29.378 29.378 0 00-5.168 2.55c-1.42-5.357-4.636-10.294-9.553-14.512a2.014 2.014 0 00-2.819.198 1.96 1.96 0 00.2 2.787c4.796 4.114 7.708 8.861 8.67 14.04a30.756 30.756 0 00-2.352 2.149c-1.805 1.834-5.859 6.507-4.514 10.267.746 2.083 2.6 3.405 4.754 3.405.056 0 .112 0 .167-.003 2.405-.076 4.476-1.715 5.152-4.079.978-3.411 1.316-6.766 1.036-10.005a26.332 26.332 0 014.972-2.789c2.047 8.174 9.527 14.254 18.42 14.254 8.78 0 15.92-7.061 15.92-15.74 0-7.314-6.017-13.264-13.414-13.264-5.662 0-10.368 4.117-11.221 9.481-2.064-.323-4.17-.242-6.25.144.33-9.914 8.585-17.88 18.692-17.88 11.522 0 21.256 9.741 21.256 21.272 0 8.111-4.698 15.965-11.97 20.009a1.963 1.963 0 00-.762 2.69 2.011 2.011 0 002.721.753c8.509-4.732 14.008-13.937 14.008-23.452 0-13.672-11.565-25.223-25.253-25.223"/>
  <path d="M41.346 15.563c-6.997-2.382-13.451 3.013-11.098 12.052 8.145-1.43 6.988-8.453 11.098-12.052"/>
</svg>