<svg xmlns="http://www.w3.org/2000/svg" viewBox="0 0 15 15"><path d="M14.1 1.113h-1.473v2.103c0 .687-.527 1.237-1.19 1.237h-.374c-.663 0-1.19-.55-1.19-1.237V1.113H5.361v2.103c0 .687-.537 1.237-1.199 1.237h-.374c-.662 0-1.21-.55-1.21-1.237V1.113H.9c-.495 0-.9.432-.9.947v12.005c0 .514.405.935.9.935h13.2c.495 0 .9-.421.9-.935V2.06c0-.515-.405-.947-.9-.947zM4.688 12.546a.344.344 0 0 1-.345.345H2.395a.344.344 0 0 1-.344-.345v-1.538a.344.344 0 0 1 .344-.344h1.948a.344.344 0 0 1 .345.344v1.538zm0-3.72a.344.344 0 0 1-.345.344H2.395a.344.344 0 0 1-.344-.344V7.288a.344.344 0 0 1 .344-.345h1.948a.344.344 0 0 1 .345.345v1.538zm4.13 3.72a.344.344 0 0 1-.344.345H6.526a.344.344 0 0 1-.344-.345v-1.538a.344.344 0 0 1 .344-.344h1.948a.344.344 0 0 1 .344.344v1.538zm0-3.72a.344.344 0 0 1-.344.344H6.526a.344.344 0 0 1-.344-.344V7.288a.344.344 0 0 1 .344-.345h1.948a.344.344 0 0 1 .344.345v1.538zm4.22 3.72a.344.344 0 0 1-.345.345h-1.948a.344.344 0 0 1-.345-.345v-1.538a.344.344 0 0 1 .345-.344h1.948a.344.344 0 0 1 .344.344v1.538zm0-3.72a.344.344 0 0 1-.345.344h-1.948a.344.344 0 0 1-.345-.344V7.288a.344.344 0 0 1 .345-.345h1.948a.344.344 0 0 1 .344.345v1.538z"/><path d="M4.162 3.926c.373 0 .672-.322.672-.71V.702c0-.387-.3-.702-.671-.702h-.376a.695.695 0 0 0-.682.702v2.514c0 .388.31.71.683.71h.374zM11.438 3.926c.372 0 .662-.322.662-.71V.7c0-.386-.29-.701-.662-.701h-.376c-.372 0-.662.315-.662.701v2.515c0 .388.29.71.662.71h.376z"/></svg>