<svg xmlns="http://www.w3.org/2000/svg" viewBox="0 0 30 30"><path d="M26.974 8.569c.175-.582 0-1.008-.828-1.008h-2.741c-.698 0-1.016.369-1.191.774 0 0-1.394 3.398-3.369 5.602-.637.642-.929.844-1.276.844-.174 0-.427-.203-.427-.784V8.57c0-.698-.2-1.008-.782-1.008h-4.307c-.436 0-.698.323-.698.63 0 .66.987.813 1.089 2.672V14.9c0 .883-.159 1.045-.509 1.045-.929 0-3.189-3.412-4.53-7.317-.261-.758-.525-1.065-1.225-1.065H3.44c-.784 0-.94.369-.94.774 0 .728.929 4.328 4.326 9.089 2.265 3.251 5.454 5.014 8.359 5.014 1.741 0 1.956-.392 1.956-1.067v-2.457c0-.783.167-.94.718-.94.405 0 1.102.205 2.728 1.771 1.858 1.858 2.166 2.691 3.21 2.691h2.74c.782 0 1.173-.391.948-1.164-.246-.768-1.134-1.887-2.311-3.21-.64-.756-1.596-1.568-1.888-1.974-.406-.524-.289-.755 0-1.22.002 0 3.34-4.702 3.688-6.3z"/></svg>