<svg xmlns="http://www.w3.org/2000/svg" viewBox="0 0 30 30"><path d="M15.003 4h-.006C8.932 4 4 8.934 4 15c0 2.406.776 4.637 2.094 6.447l-1.37 4.087 4.227-1.352A10.905 10.905 0 0 0 15.003 26C21.068 26 26 21.065 26 15S21.068 4 15.003 4zm6.4 15.533c-.265.75-1.318 1.371-2.158 1.553-.575.122-1.326.22-3.853-.828-3.233-1.34-5.314-4.624-5.477-4.837-.155-.213-1.306-1.74-1.306-3.318 0-1.579.802-2.347 1.125-2.677.265-.271.704-.395 1.124-.395.137 0 .259.007.369.012.323.014.485.034.698.544.266.639.912 2.218.99 2.38.078.162.156.382.046.595-.103.22-.194.318-.356.505-.162.187-.316.33-.479.53-.148.175-.316.362-.129.685.187.316.833 1.371 1.785 2.218 1.228 1.093 2.223 1.442 2.58 1.591.265.11.58.084.775-.122.246-.266.55-.706.86-1.139.22-.31.497-.35.788-.24.297.104 1.869.88 2.192 1.042.323.162.536.239.615.375.077.136.077.776-.189 1.526z"/></svg>