<svg xmlns="http://www.w3.org/2000/svg" fill="none" viewBox="0 0 30 30"><path fill="#9ABC88" d="M26.184 10.381a8.163 8.163 0 00-.524-2.77 5.762 5.762 0 00-3.291-3.291 8.258 8.258 0 00-2.733-.525c-1.202-.054-1.584-.069-4.636-.069-3.053 0-3.444 0-4.637.069a8.257 8.257 0 00-2.732.525A5.759 5.759 0 004.34 7.611a8.192 8.192 0 00-.524 2.731c-.053 1.204-.07 1.585-.07 4.638 0 3.052 0 3.442.07 4.637.019.935.195 1.858.524 2.734a5.762 5.762 0 003.293 3.29 8.23 8.23 0 002.73.563c1.205.053 1.586.07 4.638.07 3.053 0 3.444 0 4.638-.07a8.237 8.237 0 002.732-.524 5.77 5.77 0 003.292-3.291 8.232 8.232 0 00.523-2.734c.054-1.203.07-1.584.07-4.638-.002-3.052-.002-3.44-.072-4.636zM14.992 20.753a5.778 5.778 0 01-5.778-5.78 5.78 5.78 0 115.779 5.779zm6.01-10.424a1.346 1.346 0 01-1.348-1.348 1.346 1.346 0 112.694 0c0 .745-.603 1.348-1.347 1.348z"/><path fill="#9ABC88" d="M14.992 18.727a3.754 3.754 0 100-7.507 3.754 3.754 0 000 7.507z"/></svg>