<svg width="30" height="30" viewBox="0 0 30 30" xmlns="http://www.w3.org/2000/svg">
<path d="M15.0027 4H14.9973C8.93213 4 4 8.9335 4 15C4 17.4062 4.7755 19.6365 6.09413 21.4474L4.72325 25.5339L8.95138 24.1823C10.6908 25.3345 12.7656 26 15.0027 26C21.0679 26 26 21.0651 26 15C26 8.93488 21.0679 4 15.0027 4ZM21.4034 19.5334C21.138 20.2827 20.0847 20.9042 19.2446 21.0857C18.6699 21.2081 17.9191 21.3057 15.3919 20.258C12.1592 18.9188 10.0775 15.6339 9.91525 15.4207C9.75988 15.2076 8.609 13.6814 8.609 12.1029C8.609 10.5244 9.41062 9.75575 9.73375 9.42575C9.99913 9.15488 10.4377 9.03113 10.8585 9.03113C10.9946 9.03113 11.117 9.038 11.227 9.0435C11.5501 9.05725 11.7124 9.0765 11.9255 9.58663C12.1909 10.226 12.8371 11.8045 12.9141 11.9668C12.9925 12.129 13.0709 12.349 12.9609 12.5621C12.8577 12.7821 12.767 12.8798 12.6047 13.0667C12.4425 13.2537 12.2885 13.3968 12.1262 13.5975C11.9777 13.7721 11.81 13.9591 11.997 14.2823C12.184 14.5985 12.8302 15.6531 13.7817 16.5001C15.0096 17.5932 16.0051 17.9425 16.3612 18.091C16.6266 18.201 16.9429 18.1749 17.1368 17.9686C17.3829 17.7033 17.6867 17.2633 17.9961 16.8301C18.2161 16.5194 18.4939 16.4809 18.7854 16.5909C19.0824 16.694 20.654 17.4709 20.9771 17.6317C21.3003 17.794 21.5134 17.871 21.5917 18.0071C21.6687 18.1433 21.6687 18.7826 21.4034 19.5334Z"/>
</svg>
