<svg xmlns="http://www.w3.org/2000/svg" fill="none" viewBox="0 0 70 65"><path fill="#9ABC88" d="M19.6 26.432c-.856-.082-1.043-.515-.98-1.358.041-.679.166-1.317 0-1.975-.376-1.358-.126-2.695 1.168-3.415.376-.206.042-.762-.334-.597-1.816.597-2.192 2.572-1.816 4.218.209 1.008-.292 2.016.084 3.003.292.803 1.19 1.317 1.983 1.008.396-.164.376-.843-.105-.884zM24.735 33.855c.167-1.213 1.42-2.057 1.295-3.25-.042-.35-.564-.473-.69-.124-.208.597-.793.967-1.147 1.482-.48.658-.814 1.378-.94 2.18-.23 1.297.376 2.984 1.482 3.745.376.247 1.149 0 1.002-.556-.271-1.214-1.19-2.14-1.002-3.477zM31.415 34.394c-.062-2.058-1.085-4.012-1.148-6.11-.02-.556-.835-.515-.94-.042-.354 1.893.126 3.58.502 5.39.188.926.375 1.852.313 2.799-.084 1.008-.626 2.098-1.232 2.9-.313.412.293.926.647.515 1.336-1.482 1.92-3.477 1.858-5.452z"/><path fill="#9ABC88" d="M17.033 19.557c-.668.37-1.399.802-1.962 1.296-.647.555-1.065 1.358-1.315 2.16-.293.926-.376 1.852-.334 2.777.02 1.05-.042 2.14.354 3.087.126.329.71.329.731-.083.063-.884-.042-1.81.063-2.736.104-.823.459-1.749.751-2.592.271-.72.647-1.358 1.232-1.893.459-.432 1.023-.967 1.106-1.646.02-.33-.355-.535-.626-.37zM13.484 20.154c-.626.514-1.503 1.008-1.879 1.77-.438.843-.354 1.686-.146 2.57.105.433.877.556.919 0 .042-.678-.042-1.48.25-2.139.334-.679 1.086-1.09 1.42-1.77.146-.308-.292-.658-.564-.431z"/><path fill="#9ABC88" d="M37.573 64.08c-.334-.844-.981-1.523-1.294-2.366-.439-1.09-.898-2.016-1.566-2.983-1.294-1.852-2.713-3.498-4.696-4.63-.439-.226-1.002.412-.648.782.084.083.147.165.21.247v.247c.208.68.104 1.214-.523 1.605-.772.473-1.774.144-2.525-.165-.69-.329-1.399-.76-2.067-1.131-.772-.453-1.503-.885-2.192-1.4-1.002-.802-2.275-1.625-2.964-2.653-.417-.597-.125-1.44 0-2.099.063-.247.084-.473.105-.72.793.68 1.586 1.276 2.42 1.893.314.206.606.411.94.555-.041.535-.083 1.008.084 1.482.25.658.856 1.255 1.42 1.543.375.206.855-.247.667-.638-.209-.494-.668-.823-.94-1.255-.124-.165-.166-.37-.166-.576.98.494 1.983.885 2.922 1.337.606.288 1.148-.555.627-.967-1.316-.884-2.652-1.728-3.967-2.654-1.42-1.008-2.755-2.119-4.07-3.25-2.38-2.058-5.26-4.177-6.7-6.995-.669-1.358-1.045-2.82-1.462-4.26-.48-1.645-1.21-3.168-1.9-4.772-.667-1.543-1.315-3.148-1.273-4.835.042-1.564.73-3.004 1.461-4.341.21-.33-.334-.638-.542-.37a13.203 13.203 0 00-1.983 4.114c-.439 1.564-.126 3.25.375 4.732.564 1.77 1.503 3.374 2.088 5.144.522 1.645.897 3.332 1.586 4.937.96 2.222 2.63 4.033 4.405 5.638-.188-.042-.397-.124-.606-.165-1.544-.473-3.11-.72-4.738-.885-3.424-.308-6.596.7-9.748 1.893-.606.206-.25 1.132.375.926 1.587-.473 3.173-1.008 4.822-1.276 1.628-.288 3.215-.164 4.822.103.522.082 1.044.165 1.545.288-.564.453-1.044 1.008-1.378 1.337-1.064 1.194-1.816 2.634-2.526 4.053-.73 1.4-1.377 2.84-2.442 4.053-1.106 1.214-2.463 2.202-3.84 3.087-.418.288-.042 1.049.438.802a18.03 18.03 0 003.736-2.53c1.21-1.05 2.046-2.243 2.964-3.54.856-1.234 1.545-2.55 2.4-3.805.46-.638.961-1.235 1.566-1.77.439-.37 1.232-.596 1.587-1.09.167.04.313.082.46.123.73.247 1.46.535 2.19.803.502.205.982.411 1.483.514-.167 1.564-.96 3.086.125 4.506.501.7 1.232 1.213 1.9 1.728.814.638 1.586 1.275 2.484 1.81a32.128 32.128 0 002.609 1.44c.94.515 1.879.885 2.985.803 1.106-.124 2.046-1.05 2.171-2.058.96 1.09 1.858 2.202 2.63 3.498.564.885.898 1.81 1.294 2.777.376.885.94 1.934 1.92 2.243.543.226 1.19-.267.94-.864z"/><path fill="#9ABC88" d="M68.905 24.23c-1.649.637-3.235 1.522-4.78 2.406-.793.432-1.482.926-2.254 1.358-.334.206-.69.37-1.023.576a.959.959 0 00-.334.227c-.188-.186-.397-.35-.606-.515.439-.473.334-1.172.439-1.851.23-1.214.417-2.408.647-3.58.209-.885.563-1.77.689-2.695 1.586-.762 2.964-1.831 3.987-3.169.376-.473-.23-1.172-.71-.802-1.357 1.05-2.61 2.098-4.175 2.777-1.816.762-3.59.844-5.469.68-1.774-.206-3.486-.556-5.24-.762-.375 0-.75-.082-1.127-.082.293-.041.522-.083.815-.083 1.231-.123 2.4-.288 3.506-.843 1.107-.514 2.088-1.276 3.069-1.975 2.108-1.482 3.904-3.374 5.74-5.144.522-.514-.25-1.11-.772-.843-2.087 1.131-3.507 3.168-5.386 4.588-.939.679-1.795 1.481-2.818 2.098-1.148.68-2.4.844-3.715.947-1.253.082-2.484.247-3.59.782-1.023.473-1.88 1.255-2.714 1.975-1.315 1.193-2.672 2.51-4.446 2.962-.293-.123-.564-.206-.814-.329-.46-.206-.94-.555-1.462-.514-.396.082-.751.247-.98.473-.126-.082-.293-.123-.46-.165-.146-.082-.25-.205-.376-.329-.146-.226-.208-.473-.313-.7 2.589-1.049 4.843-2.653 6.93-4.505a40.998 40.998 0 003.132-3.168c1.106-1.255 2.17-2.696 3.465-3.745 1.106-.823 2.463-1.214 3.674-1.81 1.294-.638 2.484-1.502 3.423-2.572 1.941-2.16 4.801-3.168 7.243-4.67.647-.412.063-1.482-.626-1.173-2.505 1.132-4.947 2.551-6.93 4.444-.522.494-.96 1.05-1.545 1.522-.543.433-1.148.803-1.732 1.194-1.19.782-2.63 1.11-3.841 1.851-1.274.741-2.234 2.058-3.215 3.148-1.064 1.235-2.15 2.49-3.36 3.6-.376.37-.773.741-1.149 1.05h-.02c-1.712-.844-3.487-.227-5.282-.35-1.878-.165-3.632-.885-5.448-1.214-1.753-.329-3.653-.04-5.302.597-.543.206-1.085.494-1.607.761 0-.123-.063-.206-.126-.288-1.002-1.276-1.106-2.963-1.586-4.444-.501-1.563-1.378-2.736-2.776-3.62-2.651-1.647-5.908-1.77-8.976-1.729-.418 0-.439.679-.021.72 2.755.268 5.803.823 8.1 2.407 2.65 1.852 1.961 5.308 3.777 7.633-.793.33-1.607.576-2.4.864-.397.165-.167.679.209.597 1.795-.432 3.444-.844 5.114-1.646 1.69-.761 3.57-.885 5.364-.515.731.165 1.42.33 2.13.515-.397.247-.71.514-.94.761a4.202 4.202 0 00-1.148 3.024c.042.37.605.37.647 0a3.902 3.902 0 012.296-2.818c.397-.165.815-.124 1.211-.37l.042-.042c.313.041.605.124.918.165-.041.041-.083.041-.146.082-1.002.761-1.586 1.975-2.4 2.901-.94 1.029-2.046 1.358-3.445 1.152-1.565-.247-3.277-.679-4.675-1.44-.314-.206-.69.37-.355.597 2.275 1.44 5.594 3.045 8.224 1.522 1.065-.638 1.774-1.749 2.547-2.716.918-1.213 2.317-1.687 3.757-2.16.355 0 .69.041 1.023.124a72.647 72.647 0 01-4.822 3.23c-.125 0-.209.082-.292.164-.668.844.522 2.572 1.524 2.695-.063.474-.105.967-.021 1.482.125.802.626 1.378 1.19 1.893.605.555 1.42.966 2.15 1.357.897.474 1.753 1.05 2.63 1.564.814.514 1.607 1.132 2.4 1.646.606.452 1.336.905 1.691 1.584.355.72-.396 1.523-.793 2.057-.543.597-1.085 1.194-1.545 1.873-.543.802-1.002 1.646-1.524 2.407-.542.802-1.21 1.42-1.983 1.975-1.44 1.131-3.11 1.975-4.696 2.9-2.547 1.482-7.223 4.424-5.177 7.901.125.247.355.288.543.206.104.082.23.123.355.123 2.4-.432 4.55-1.728 6.596-2.962 1.148-.68 2.275-1.358 3.507-1.976.96-.493 1.962-1.049 3.026-1.255-.918 1.05-1.774 2.202-2.692 3.292-1.044 1.255-2.192 2.449-3.299 3.704-.897 1.049-1.649 2.263-1.837 3.62-.125 1.05.272 2.16 1.378 2.49.084 0 .167 0 .25-.041.168 0 .335-.124.397-.33-.062.248.063 0 .188-.123.209-.123.376-.288.564-.432.376-.288.73-.555 1.106-.843 1.253-.967 2.422-1.975 3.82-2.778.689-.432 1.148-.843 1.587-1.522a8.804 8.804 0 011.336-1.523c-.877 1.008-1.88 2.058-2.38 3.292-.146.33-.167.72-.23 1.09-.083.35-.208.72-.334 1.09-.188.474-.146 1.112.292 1.482.69.597 2.046.68 2.86.247.125-.041.209-.164.25-.247.564-.329.961-.926 1.358-1.44.751-1.008 1.69-1.77 2.567-2.654.877-.802 1.774-1.687 2.568-2.613.02 0 .062-.041.062-.082-.083.679.167 1.317.898 1.522.814.206 1.628-.205 2.317-.596 1.002-.556 1.795-1.482 2.567-2.284 1.023-1.09 2.276-1.975 3.215-3.086.71-.206 1.399-.412 2.087-.72.814-.33 1.587-.761 2.338-1.214.877-.473 1.775-.967 2.547-1.646a.68.68 0 00-.647-1.173c-1.69.515-3.173 1.75-4.78 2.552-1.503.822-3.11 1.255-4.76 1.625-.563.144-.271.885.21.885h.855c-1.273 1.049-2.359 2.366-3.59 3.497-.376.35-.877.638-1.399.823-.626.288-1.002.33-1.19-.39a.314.314 0 00-.292-.207c.626-.72 1.273-1.522 1.628-2.407.209-.514-.543-1.049-.918-.514-.627.843-1.17 1.728-1.858 2.53-.73.885-1.545 1.688-2.38 2.449-.835.802-1.69 1.605-2.421 2.49-.501.596-.856 1.316-1.42 1.892-.062 0-.146 0-.208.041-.376.124-.752.144-1.148.124-.606-.042-.648-.288-.418-.823.23-.556.334-1.132.438-1.687.167-.638.648-1.173 1.065-1.646.898-1.008 1.712-2.099 2.526-3.128.48-.637 1.294-1.275 1.628-2.057.626-.144.46-1.152-.271-1.152-1.608-.041-2.505 1.77-3.528 2.695-.647.556-1.315 1.111-1.9 1.77-.271.308-.521.72-.772 1.07-.313.37-.814.616-1.252.843-1.42.802-2.589 1.893-3.862 2.9-.376.289-1.253.844-1.65 1.4-.605-.556.022-2.078.335-2.737.522-1.09 1.46-2.016 2.275-2.9 1.92-2.14 3.757-4.3 5.219-6.749.104-.205.02-.37-.126-.432a.567.567 0 00-.563-.432c-1.232 0-2.234.556-3.298 1.09-1.253.556-2.422 1.194-3.59 1.873-1.107.679-2.193 1.378-3.299 2.016-1.148.597-2.359 1.008-3.57 1.44-.166-.802-.292-1.481.147-2.283.438-.844 1.294-1.523 2.024-2.099 1.4-1.09 2.923-1.975 4.447-2.777 1.544-.823 3.068-1.708 4.32-2.922 1.337-1.275 2.088-3.004 3.194-4.464.919-1.194 2.13-2.16 2.109-3.765-.021-1.502-1.837-2.428-2.86-3.19a35.23 35.23 0 00-4.947-2.962c-.793-.411-1.608-.802-2.276-1.378-.605-.515-.688-1.235-.605-1.914.125-.37.418-.802.773-.637.459.164.855.514 1.335.72 1.107.473 2.192.802 3.34 1.172 2.338.7 4.634 1.708 7.056 1.996 1.21.123 2.463.247 3.653.247 1.273.041 2.526-.124 3.778.165 1.9.41 3.36 1.728 4.55 3.168.564.761 1.67.123 1.42-.72-.042-.165-.125-.33-.167-.494.063 0 .125-.041.209-.082.918-.412 1.795-.762 2.65-1.255 1.817-1.05 3.758-1.852 5.512-2.983.751-.453.062-1.708-.773-1.338zm-18.41-4.116c.229.042.438.083.646.124.773.206 1.503.473 2.297.638-.063.123-.126.205-.21.329-.208.37-.438.679-.709.967a16.21 16.21 0 00-1.336-.68H51.1c-.021-.081-.105-.164-.188-.205a2.439 2.439 0 00-.585-.206c0-.308.063-.637.167-.966zm3.423 6.152a.647.647 0 00-.25-.39c-.44-.289-.69-.803-1.128-1.133-.46-.37-1.002-.555-1.545-.802-.647-.288-1.377-.123-2.045-.288-.355-.123-.606.453-.293.659.73.431 1.545.884 2.338 1.255.397.164.73.411.96.72l.042.04c-1.398 0-2.86-.164-4.237-.329-1.42-.205-2.777-.72-4.133-1.172-1.086-.37-2.171-.638-3.236-.967.981-.473 1.92-1.235 2.547-1.81.793-.72 1.586-1.482 2.463-2.079.083.042.167.042.271 0 1.17-.329 2.505-.288 3.779-.04-.126.267-.251.637-.272 1.007-.438 0-.793-.04-1.231.083-.314.02-.314.514-.021.637.417.165.793.37 1.252.433.334.082.71.164 1.065.246a7.64 7.64 0 011.586.803c1.315.802 2.13 2.119 3.215 3.21a10.37 10.37 0 00-1.127-.083zm1.482-1.564c-.606-.637-1.232-1.275-1.879-1.81-.063-.041-.104-.082-.146-.123.25-.227.417-.515.626-.803.125-.185.25-.35.376-.555.104-.124.209-.206.292-.33.418.083.835.124 1.294.165-.083 1.379.126 2.695.167 4.012.021.082.021.123.021.165a8.264 8.264 0 01-.751-.72zm3.423 2.737c-.188.04-.397-.041-.605-.165a.517.517 0 00-.105-.411c-.25-.309-.522-.474-.605-.864-.104-.453-.084-.885-.104-1.297-.063-1.131-.105-2.283-.21-3.415.982 0 1.942-.206 2.881-.473-.354 1.152-.563 2.448-.772 3.6-.167.803-.396 1.605-.417 2.407.02.103.041.618-.063.618z"/></svg>