<svg xmlns="http://www.w3.org/2000/svg" fill="none" viewBox="0 0 64 65"><path fill="#9ABC88" d="M28.907 63.612a3.105 3.105 0 01-1.425-.378 3.321 3.321 0 01-1.113-1.186 21.996 21.996 0 01-1.485-3.471c-.104-.263-.465-.102-.397.158.2.75.395 1.502.598 2.252.157.678.413 1.329.76 1.931.628 1.002 2.032 1.963 3.2 1.248a.312.312 0 00-.138-.554zM32.314 61.474c-.374-.291-.847-.435-1.234-.72a4.934 4.934 0 01-.945-.935 9.133 9.133 0 01-.69-1.143 2.426 2.426 0 00-.413-.526 1.705 1.705 0 00-.575-.345.194.194 0 00-.24.082.198.198 0 00.043.252c.162.186.265.419.292.666l.168.67c.138.501.37.971.682 1.385a3.847 3.847 0 002.62 1.642c.521.005.657-.744.292-1.028z"/><path fill="#9ABC88" d="M34.169 63.362a6.016 6.016 0 01-3.002-.115 4.024 4.024 0 01-1.108-.744 9.763 9.763 0 01-1.036-1.07c-.11-.14-.376-.01-.284.16.27.502.473 1.021.794 1.498.3.486.69.911 1.147 1.253.53.359 1.146.565 1.784.597a3.06 3.06 0 002.178-.379.676.676 0 00-.473-1.2zM35.13 57.73c-.391.25-.757.54-1.152.786a6.584 6.584 0 01-1.22.584 8.537 8.537 0 01-1.328.298c-.158.032-.26.254-.102.362a2.923 2.923 0 002.597.077c.428-.168.837-.38 1.222-.632.373-.235.983-.536.993-1.042.011-.55-.615-.683-1.01-.432zM30.576 17.09a7.22 7.22 0 01-1.725 2.456 7.172 7.172 0 01-2.57 1.535c-.992.39-2.005.694-2.993 1.097a11.46 11.46 0 00-1.272.633 3.016 3.016 0 00-1.066.924c-.179.267.162.574.375.357a3.02 3.02 0 011.258-.823c.484-.156.994-.203 1.487-.312 1.1-.234 2.167-.608 3.173-1.114a7.394 7.394 0 002.435-1.907 5.992 5.992 0 001.233-2.78c.04-.227-.266-.265-.335-.066zM24.178 54.815c-.164-.506-.324-1.014-.481-1.522-.288-.938-.576-1.876-.834-2.822a22.513 22.513 0 01-.953-5.89c-.005-1.982.404-3.937.552-5.908.173-1.971.034-3.959-.412-5.887-.245-1.008-.543-2.01-.75-3.027a6.246 6.246 0 01.047-3.153.162.162 0 00-.086-.206.16.16 0 00-.208.078 8.359 8.359 0 00-.174 5.395c.236.94.42 1.892.55 2.852.09 1.013.092 2.033.005 3.046a57.713 57.713 0 00-.327 6.163c.085 2.027.356 4.042.81 6.019.256 1.108.574 2.202.951 3.275a83 83 0 00.582 1.615c.162.529.385 1.037.667 1.512a.234.234 0 00.415-.167 6.22 6.22 0 00-.354-1.373zM30.334 37.282a4.29 4.29 0 01-1.543 1.127c-.578.269-1.2.428-1.836.467l-.124.032a81.306 81.306 0 00-.359-2.409c-.318-1.935-.727-3.856-1.074-5.787-.053-.293-.502-.25-.462.051.236 1.772.412 3.548.613 5.324.196 1.733.393 3.468.544 5.205.155 1.776.29 3.56.308 5.343.017 1.649-.092 3.29-.129 4.938a8.031 8.031 0 001.15 4.935.339.339 0 00.583-.33 8.454 8.454 0 01-.516-2.166c-.05-.73-.062-1.462-.033-2.192.028-1.644.098-3.278.042-4.923a81.439 81.439 0 00-.532-6.922 4.156 4.156 0 002.288-.59c.344-.192.651-.443.91-.741a6.57 6.57 0 00.637-.994c.196-.319-.243-.688-.467-.368zM45.67 23.378c-.96-.55-2.043-.96-3.059-1.42a11.354 11.354 0 01-4.895-3.16 3.518 3.518 0 01-.744-2.92c.076-.264-.345-.367-.444-.108a3.673 3.673 0 00-.059 2.588 5.45 5.45 0 001.731 2.277 26.28 26.28 0 005.722 2.986c.96.435 2.309.962 2.44 2.074.03.245.427.208.5.003.116-.467.059-.96-.161-1.387a1.969 1.969 0 00-1.032-.933zM46.113 28.716c-.418 1.097-.878 2.174-1.266 3.282a64.6 64.6 0 00-1.074 3.349 32.321 32.321 0 00-.782 3.387 26.932 26.932 0 00-.279 3.56 37.021 37.021 0 01-.86 7.028 28.041 28.041 0 01-2.74 6.397c-1.271 2.43-2.614 4.849-3.654 7.39-.16.391.415.78.66.393 1.305-2.063 2.391-4.268 3.5-6.442a38.075 38.075 0 002.912-6.445c.565-2.312.88-4.68.937-7.06a53.53 53.53 0 011.123-7.012 83.5 83.5 0 01.884-3.85c.332-1.291.63-2.592.973-3.88.052-.194-.264-.282-.334-.097zM36.781 12.854a8.223 8.223 0 01-.748 1.557c-.343.487-.78.901-1.283 1.218a5.428 5.428 0 01-3.774.614.138.138 0 00-.151.1.14.14 0 00.076.165 4.002 4.002 0 002.084.443 4.936 4.936 0 002.128-.68 5.03 5.03 0 001.476-1.36c.432-.542.711-1.19.808-1.878a.327.327 0 00-.232-.354.322.322 0 00-.384.175z"/><path fill="#9ABC88" d="M40.137 9.935a8.362 8.362 0 00-.993-2.092c.076-.803.056-1.614-.06-2.413a6.705 6.705 0 00-1.006-2.848A6.015 6.015 0 0036.338.94a5.981 5.981 0 00-2.237-.83 6.79 6.79 0 00-4.823.924 6.073 6.073 0 00-1.99 2.027 7.009 7.009 0 00-.856 2.955 17.591 17.591 0 00.127 3.736c.076.622.183 1.24.322 1.852.153.633.349 1.256.585 1.863a.186.186 0 00.357-.089c-.064-.508-.1-1.015-.162-1.524a40.966 40.966 0 01-.166-1.598 29.596 29.596 0 01-.083-1.41 4.845 4.845 0 01.813-1.62 8.023 8.023 0 012.38-1.822 5.591 5.591 0 001.984-1.83c.172.312.376.604.61.871a32.547 32.547 0 003.296 2.598 7.973 7.973 0 011.914 2.575c.492.993.83 2.055 1.006 3.15a10.677 10.677 0 01-.336 3.792.258.258 0 00.315.283.256.256 0 00.137-.087 6.871 6.871 0 00.96-3.284 9.971 9.971 0 00-.354-3.538zM31.604 1.98a2.62 2.62 0 01-.445 1.059 10.388 10.388 0 01-2.084 2.014 7.351 7.351 0 00-1.633 1.667 6.81 6.81 0 01.511-2.278c.341-.747.855-1.4 1.498-1.906a5.713 5.713 0 012.176-1.05c.007.165 0 .33-.023.494zm3.658 2.437a5.954 5.954 0 01-2.195-2.072 3.486 3.486 0 00.018-1.036 4.849 4.849 0 013.734 1.603c.582.713.98 1.56 1.159 2.465.084.4.145.806.184 1.213a14.367 14.367 0 00-2.9-2.173zM41.375 31.933c-.605 1.606-1.272 3.186-1.843 4.804a82.137 82.137 0 00-1.57 4.904 48.846 48.846 0 00-1.22 4.991 36.04 36.04 0 00-.56 5.154 14.818 14.818 0 01-.63 5.016.22.22 0 00.093.269.218.218 0 00.278-.048 6.39 6.39 0 001.3-4.205c.073-1.691.232-3.378.476-5.053a72.591 72.591 0 012.365-9.996c.574-1.885 1.126-3.778 1.744-5.648.095-.286-.324-.477-.433-.189zM37.66 38.596a4.864 4.864 0 00-.976-.441 5.24 5.24 0 01-.97-.515 9.031 9.031 0 01-1.729-1.498c-.217-.248-.627.053-.412.313a17.9 17.9 0 001.658 1.97 2.617 2.617 0 002.326.885.416.416 0 00.23-.541.417.417 0 00-.128-.173zM34.597 49.216c-.759-.1-1.525-.136-2.29-.105-.756-.021-1.506-.049-2.264-.04-.384.004-.34.556-.013.636.744.175 1.498.298 2.259.369.756.125 1.525.15 2.288.077a.47.47 0 00.406-.46.476.476 0 00-.386-.477zM63.34 40.012a2.578 2.578 0 00-1.81-.77 6.578 6.578 0 00-1.988.127 21.453 21.453 0 00-3.78 1.28 36.99 36.99 0 00-7.168 3.916c-.612.433-1.198.905-1.776 1.383-.611.505-1.144 1.097-1.726 1.635-.16.148.027.413.207.276.525-.4 1.094-.727 1.649-1.083.537-.346 1.062-.71 1.605-1.048 1.092-.678 2.188-1.352 3.319-1.964a44.932 44.932 0 013.482-1.704 23.624 23.624 0 013.58-1.327 7.253 7.253 0 011.891-.252c.342.006.683.055 1.013.146.314.122.638.219.968.288a.568.568 0 00.56-.276.577.577 0 00-.026-.627zM19.814 47.047a5.274 5.274 0 00-1.425-1.783 20.849 20.849 0 00-1.771-1.49 24.124 24.124 0 00-3.993-2.473 12.046 12.046 0 00-9.21-1.494 7.902 7.902 0 00-1.97 1.028 5.03 5.03 0 00-1.421 1.711c-.116.214.223.415.363.217a5.14 5.14 0 013.074-1.969 10.09 10.09 0 014.242.292c1.418.378 2.794.897 4.11 1.55a31.868 31.868 0 013.685 2.039c.679.44 1.34.904 1.987 1.392.308.232.623.452.932.683.314.267.668.481 1.05.636a.265.265 0 00.356-.188.27.27 0 00-.009-.151zM22.478 59.881c-.878-.408-1.858-.644-2.772-.965-.888-.312-1.779-.623-2.663-.95a49.303 49.303 0 01-5.197-2.214 27.802 27.802 0 01-7.95-5.79 23.9 23.9 0 01-1.734-2.109 15.11 15.11 0 01-1.51-2.381.317.317 0 00-.405-.168.316.316 0 00-.18.402c.274.794.597 1.57.969 2.324.397.761.853 1.49 1.363 2.18a21.53 21.53 0 003.575 3.711 30.686 30.686 0 009.809 5.191c1.065.357 2.138.686 3.225.966.532.136 1.064.267 1.598.394.527.148 1.064.261 1.606.339a.485.485 0 00.528-.351.492.492 0 00-.262-.579z"/><path fill="#9ABC88" d="M21.505 55.208a19.86 19.86 0 00-1.395-1.946c-.481-.64-.946-1.29-1.402-1.95-.908-1.312-1.815-2.63-2.812-3.877a18.006 18.006 0 00-3.199-3.207 12.491 12.491 0 00-4.087-2.026 7.703 7.703 0 00-4.757.167.276.276 0 00-.158.32.276.276 0 00.288.21c2.75-.085 5.446.78 7.64 2.448a30.943 30.943 0 016.223 6.333c.521.656 1.035 1.318 1.56 1.973a10.48 10.48 0 001.766 1.884c.227.172.462-.107.333-.33zM55.82 42.791a6.886 6.886 0 00-.837.167 10.09 10.09 0 00-2.438 1.169 19.506 19.506 0 00-2.796 2.19c-1.83 1.723-3.44 3.666-5.153 5.505-.488.525-.98 1.045-1.496 1.542a39.2 39.2 0 00-.717.708c-.261.304-.545.59-.848.852a.161.161 0 00.194.258c.508-.384 1.092-.64 1.585-1.054.47-.393.928-.803 1.375-1.223.915-.857 1.766-1.777 2.643-2.672a39.447 39.447 0 015.288-4.756c.524-.37 1.07-.706 1.62-1.035.279-.169.56-.335.849-.486.304-.16.589-.353.891-.51.312-.162.243-.734-.16-.654zM64 43.596a.36.36 0 00-.3-.302.356.356 0 00-.375.2c-.47.837-.773 1.765-1.224 2.617a17.33 17.33 0 01-1.518 2.401 20.122 20.122 0 01-4.388 4.123 56.084 56.084 0 01-5.421 3.34c-1.958 1.085-3.93 2.143-5.945 3.117a105.488 105.488 0 01-3.377 1.557 108.756 108.756 0 00-3.492 1.6.196.196 0 00.143.363 33.298 33.298 0 003.304-1.082c1.06-.411 2.112-.839 3.158-1.284 2.105-.896 4.2-1.84 6.234-2.889a31.912 31.912 0 0010.54-7.574 13.52 13.52 0 001.873-2.903c.532-1.01.803-2.14.787-3.284zM33.062 56.869c-.366.017-.733.02-1.099.037-.4.04-.803.016-1.194-.074-.348-.108-.584.403-.229.533a8.26 8.26 0 002.088.7c.382.04.768.03 1.148-.029.344-.062.828-.169.951-.543.297-.9-1.219-.646-1.665-.624zM35.903 8.89a3.326 3.326 0 01-2.482.495c-.144-.034-.195.183-.07.243a2.432 2.432 0 002.816-.468c.155-.179-.092-.369-.264-.27zM30.722 9.52a2.088 2.088 0 01-1.874.076.149.149 0 00-.205.029.15.15 0 00.021.207c.305.32.722.507 1.162.524a1.38 1.38 0 001.147-.498.22.22 0 00-.113-.342.218.218 0 00-.138.004zM45.173 25.466a8.037 8.037 0 00-4.856 1.813 31.685 31.685 0 01-4.565 3.02 6.037 6.037 0 01-2.458.61 4.3 4.3 0 01-2.11-.639 19.806 19.806 0 01-3.738-3.503 10.237 10.237 0 00-2.396-1.92 5.6 5.6 0 00-1.303-.517 5.834 5.834 0 00-1.393-.117c-.21-.003-.2.322-.008.358.823.219 1.58.635 2.208 1.213a15.762 15.762 0 011.792 1.82 19.944 19.944 0 003.653 3.79 5.656 5.656 0 005.314.745 14.745 14.745 0 004.381-3.456 7.626 7.626 0 012.421-1.938 7.587 7.587 0 012.988-.81c.3.015.374-.451.07-.47zM33.492 13.73a2.892 2.892 0 01-1.143.29.188.188 0 00-.162.16.19.19 0 00.108.2 1.36 1.36 0 001.41-.266c.18-.152.02-.504-.213-.384z"/></svg>