<svg xmlns="http://www.w3.org/2000/svg" fill="none" viewBox="0 0 66 65"><path fill="#9ABC88" d="M7.765 25.243c-1.52 2.695-4.59 5.202-7.14 5.832a.813.813 0 00-.625.808c.01.38.285.702.663.777 2.66.524 5.312 2.724 7.096 5.883 2.232 3.952 6.23 6.508 10.71 6.969.05 4.917 2.782 9.445 7.162 11.84 2.736 1.497 5.282 4.52 5.92 7.033a.825.825 0 00.802.615h.02a.824.824 0 00.79-.654c.532-2.618 2.765-5.231 5.973-6.989 4.013-2.197 6.614-6.133 7.082-10.547 4.99-.05 9.586-2.741 12.018-7.053 1.52-2.696 4.589-5.202 7.14-5.832a.813.813 0 00.624-.808.816.816 0 00-.663-.777c-2.66-.525-5.312-2.724-7.096-5.883-2.232-3.952-6.233-6.492-10.71-6.966-.048-4.92-2.78-9.448-7.162-11.843-2.737-1.497-5.282-4.52-5.92-7.032A.853.853 0 0033.627 0a.824.824 0 00-.79.654c-.532 2.619-2.765 5.231-5.974 6.989-4.013 2.198-6.614 6.134-7.082 10.548-4.99.05-9.586 2.74-12.017 7.052zm1.438 12.51c-1.537-2.722-3.686-4.822-6.006-5.94 2.563-1.33 4.838-3.701 6.012-5.782 2.127-3.775 6.139-6.139 10.504-6.213 0 .07-.003.14 0 .21.161 5.505 3.682 10.228 8.604 12.246a13.875 13.875 0 00-5.544 3.19c-2.41 2.267-3.878 5.22-4.224 8.431a12.205 12.205 0 01-9.346-6.143zM44.639 45.1a12.206 12.206 0 01-7.434-3.65 11.867 11.867 0 01-3.377-8.058c5.955.694 10.635 5.64 10.812 11.626 0 .028-.002.055-.001.082zM21.362 19.9a12.205 12.205 0 017.434 3.65 11.874 11.874 0 013.377 8.057c-5.955-.693-10.635-5.638-10.812-11.625l.001-.082zm10.731 13.412c-.702 5.867-5.724 10.477-11.804 10.65h-.083c.327-2.788 1.608-5.349 3.706-7.322 2.236-2.102 5.115-3.26 8.181-3.328zm6.24 22.625c-2.763 1.513-4.894 3.63-6.03 5.914-1.351-2.523-3.758-4.764-5.87-5.92-3.833-2.096-6.232-6.044-6.31-10.34l.214-.004a13.963 13.963 0 0012.436-8.482 13.56 13.56 0 003.238 5.468 13.85 13.85 0 008.555 4.159c-.438 3.853-2.724 7.282-6.233 9.205zm18.465-28.69c1.537 2.722 3.686 4.821 6.005 5.939-2.563 1.331-4.838 3.701-6.012 5.782-2.128 3.776-6.139 6.139-10.504 6.215 0-.071.003-.141 0-.212-.161-5.5-3.677-10.221-8.595-12.241a13.87 13.87 0 005.535-3.195c2.408-2.264 3.874-5.213 4.222-8.42 3.913.43 7.397 2.677 9.349 6.133zm-22.891 4.437c.705-5.865 5.725-10.473 11.804-10.646l.084-.002c-.327 2.788-1.609 5.35-3.706 7.322-2.236 2.104-5.115 3.255-8.182 3.326zm-6.24-22.621c2.762-1.514 4.894-3.63 6.03-5.915 1.351 2.524 3.758 4.765 5.872 5.92 3.833 2.097 6.233 6.048 6.309 10.346-.072.001-.142-.004-.214-.002a13.96 13.96 0 00-12.437 8.48 13.558 13.558 0 00-3.237-5.466 13.852 13.852 0 00-8.556-4.159c.438-3.852 2.724-7.282 6.233-9.204zM8.679 9.72a.83.83 0 001.167 0 .803.803 0 000-1.15L1.409.26a.833.833 0 00-1.167 0 .803.803 0 000 1.15L8.68 9.72zM15.038 15.983a.83.83 0 001.167 0 .803.803 0 000-1.15l-3.57-3.514a.833.833 0 00-1.166 0 .803.803 0 000 1.15l3.57 3.514zM8.702 55.303l-8.438 8.31a.803.803 0 000 1.149.83.83 0 001.167 0l8.438-8.31a.803.803 0 000-1.15.834.834 0 00-1.167 0zM15.061 49.04l-3.57 3.515a.803.803 0 000 1.15.83.83 0 001.168 0l3.57-3.515a.803.803 0 000-1.15.833.833 0 00-1.168 0zM57.32 55.28a.834.834 0 00-1.167 0 .803.803 0 000 1.15l8.438 8.31a.83.83 0 001.167 0 .803.803 0 000-1.15l-8.438-8.31zM49.794 49.018a.803.803 0 000 1.15l3.57 3.514a.83.83 0 001.167 0 .803.803 0 000-1.149l-3.57-3.515a.834.834 0 00-1.167 0zM56.715 9.936a.83.83 0 00.583-.238l8.438-8.31a.803.803 0 000-1.15.833.833 0 00-1.167 0l-8.438 8.31a.803.803 0 000 1.15.83.83 0 00.584.238zM50.355 16.199a.83.83 0 00.584-.238l3.57-3.515a.803.803 0 000-1.15.833.833 0 00-1.168 0l-3.57 3.515a.803.803 0 000 1.15.83.83 0 00.584.238z"/></svg>