<svg xmlns="http://www.w3.org/2000/svg" fill="none" viewBox="0 0 100 94"><path fill="#9ABC88" d="M49.688 58.874c-2.57 0-4.976.683-6.775 1.925-1.711 1.18-2.653 2.721-2.653 4.34 0 1.254 1.654 2.773 4.656 4.276 2.033 1.016 4.096 1.726 4.772 1.949.675-.223 2.738-.933 4.771-1.95 3.003-1.502 4.657-3.02 4.657-4.275 0-1.618-.942-3.16-2.653-4.34-1.799-1.242-4.205-1.925-6.775-1.925zm0 14.082a.77.77 0 01-.23-.035 38.487 38.487 0 01-5.22-2.11c-3.67-1.833-5.531-3.741-5.531-5.672 0-2.144 1.18-4.139 3.324-5.618 2.056-1.419 4.775-2.2 7.657-2.2 2.881 0 5.601.781 7.656 2.2 2.144 1.48 3.325 3.474 3.325 5.618 0 1.93-1.861 3.84-5.532 5.672a38.403 38.403 0 01-5.22 2.11.767.767 0 01-.23.035z"/><path fill="#9ABC88" d="M62.18 69.754c-1.154 0-2.96-.08-4.833-.474a.776.776 0 11.321-1.52c2.035.43 4.027.456 5.015.435.088-1.335.008-4.54-2.474-6.47-2.727-2.119-6.182-3.241-8.4-2.731a.776.776 0 11-.348-1.514c2.684-.617 6.581.596 9.7 3.019 3.93 3.053 3.026 8.357 2.986 8.582a.776.776 0 01-.708.636c-.047.004-.519.037-1.259.037zM37.198 69.754c-.74 0-1.211-.033-1.26-.037a.776.776 0 01-.707-.636c-.04-.225-.944-5.529 2.986-8.582 3.119-2.423 7.016-3.636 9.7-3.019a.777.777 0 01-.348 1.514c-2.218-.51-5.673.613-8.4 2.731-2.481 1.928-2.562 5.134-2.474 6.47.99.02 2.984-.006 5.015-.435a.776.776 0 11.32 1.52c-1.87.394-3.678.474-4.832.474z"/><path fill="#9ABC88" d="M49.688 29.2c-1.885 1.338-9.428 7.116-9.428 13.835 0 3.793 1.012 7.347 2.851 10.01 1.778 2.575 4.114 3.993 6.577 3.993s4.798-1.418 6.577-3.993c1.839-2.663 2.851-6.218 2.851-10.01 0-6.728-7.542-12.498-9.428-13.835zm0 29.391c-2.989 0-5.778-1.656-7.855-4.663-2.016-2.92-3.126-6.788-3.126-10.893 0-1.991.568-4.051 1.688-6.121.879-1.625 2.1-3.262 3.628-4.865 2.585-2.709 5.135-4.374 5.242-4.444a.778.778 0 01.845 0c.107.07 2.658 1.735 5.242 4.444 1.529 1.603 2.75 3.24 3.63 4.865 1.119 2.07 1.687 4.13 1.687 6.121 0 4.104-1.11 7.972-3.127 10.893-2.076 3.007-4.866 4.663-7.854 4.663z"/><path fill="#9ABC88" d="M42.512 59.735a21.83 21.83 0 01-4.456-.47c-1.95-.406-3.85-1.384-5.648-2.903-1.41-1.193-2.762-2.723-4.018-4.547-2.125-3.084-3.234-5.92-3.28-6.04a.778.778 0 01.173-.827c.067-.068 1.682-1.688 4.18-3.408a.776.776 0 11.88 1.279 32.32 32.32 0 00-3.586 2.868c.924 2.118 5.039 10.685 11.617 12.058 3.153.659 6.39.558 9.112-.285.261-.08.525-.17.785-.268l.014-.005c.12-.044.242-.092.362-.142a.777.777 0 11.564 1.447c-.125.052-.252.101-.377.148l-.009.003c-.293.11-.59.212-.881.301-1.703.527-3.536.791-5.432.791z"/><path fill="#9ABC88" d="M56.866 59.735c-1.897 0-3.73-.264-5.435-.792a14.58 14.58 0 01-.88-.3l-.011-.004c-.128-.048-.26-.1-.388-.153a.776.776 0 11.577-1.441c.12.05.243.098.362.142l.017.006c.26.098.523.187.78.267 2.725.843 5.962.944 9.116.285 6.587-1.376 10.694-9.94 11.616-12.057a32.331 32.331 0 00-3.587-2.87.778.778 0 01.881-1.278c2.497 1.72 4.112 3.34 4.18 3.408a.775.775 0 01.172.827c-.046.12-1.154 2.956-3.278 6.04-1.256 1.824-2.609 3.354-4.02 4.547-1.797 1.52-3.697 2.497-5.648 2.904-1.501.313-2.997.47-4.454.47z"/><path fill="#9ABC88" d="M49.157 59.095c-.781 0-1.588-.098-2.41-.294-4.087-.972-8.086-4.253-10.697-8.774-2.442-4.23-1.645-9.652-.547-13.456.861-2.988 1.931-5.098 1.976-5.186a.778.778 0 01.731-.423c.118.006 2.935.16 6.349 1.11a.777.777 0 11-.416 1.496 32.392 32.392 0 00-5.502-1.015 32.527 32.527 0 00-1.646 4.449c-1.014 3.515-1.768 8.493.4 12.248 2.401 4.159 6.032 7.165 9.711 8.04 2.023.483 3.909.265 5.455-.628a6.456 6.456 0 001.621-1.33.777.777 0 011.166 1.027 8.03 8.03 0 01-2.01 1.648c-1.25.722-2.668 1.088-4.181 1.088z"/><path fill="#9ABC88" d="M46.619 58.839c-3.202 0-6.663-.984-9.785-2.787-1.726-.996-3.226-2.518-4.458-4.523-.967-1.574-1.775-3.45-2.398-5.575-1.054-3.592-1.222-6.634-1.228-6.761a.777.777 0 01.422-.732c.123-.062 3.04-1.538 6.876-2.412a.777.777 0 11.372 1.508 32.201 32.201 0 00-6.078 2.066c.216 2.3 1.449 11.725 7.268 15.084 2.986 1.725 6.288 2.64 9.299 2.576h.005a12.402 12.402 0 002.216-.242.777.777 0 11.287 1.526c-.783.16-1.615.25-2.474.269h-.005c-.107.002-.213.003-.32.003z"/><path fill="#9ABC88" d="M50.22 59.095c-1.512 0-2.929-.366-4.18-1.088a8.003 8.003 0 01-2.009-1.649.776.776 0 011.165-1.026c.47.534 1.016.981 1.621 1.33 1.546.893 3.432 1.11 5.455.629 3.68-.876 7.31-3.882 9.712-8.04 2.167-3.756 1.413-8.734.4-12.25a32.374 32.374 0 00-1.647-4.448c-.943.087-3.085.343-5.502 1.015a.777.777 0 11-.416-1.496c3.414-.95 6.23-1.104 6.348-1.11a.779.779 0 01.733.423c.045.087 1.114 2.198 1.976 5.186 1.098 3.804 1.893 9.227-.548 13.456-2.61 4.521-6.609 7.802-10.697 8.774-.822.196-1.629.294-2.41.294z"/><path fill="#9ABC88" d="M52.758 58.839c-.107 0-.213 0-.32-.003h-.005a14.025 14.025 0 01-2.484-.27.778.778 0 11.297-1.525c.698.144 1.444.225 2.216.242h.005c3.014.063 6.314-.852 9.299-2.576 5.82-3.36 7.052-12.782 7.268-15.084a32.313 32.313 0 00-6.078-2.066.776.776 0 11.374-1.507c3.835.873 6.752 2.349 6.874 2.41.273.14.439.427.423.733-.007.127-.174 3.169-1.228 6.761-.624 2.126-1.43 4.001-2.399 5.575-1.232 2.005-2.732 3.527-4.458 4.523-3.122 1.803-6.582 2.787-9.784 2.787z"/><path fill="#9ABC88" d="M50.243 72.777c.101.38.572 1.933 1.837 3.465 1.793 2.169 4.306 3.27 7.469 3.27 3.704 0 9.415-1.777 14.333-6.76 3.827-3.875 8.388-11.049 8.388-23.209 0-22.652-18.263-32.841-31.232-32.841h-2.79c-12.968 0-31.233 10.189-31.233 32.841 0 12.16 4.562 19.334 8.39 23.21 4.918 4.982 10.628 6.758 14.333 6.758 3.162 0 5.676-1.1 7.468-3.269 1.265-1.532 1.736-3.085 1.838-3.465a.597.597 0 01.596-.545h.007a.6.6 0 01.596.545zm9.306 7.931c-4.406 0-6.995-2.014-8.391-3.703a11.118 11.118 0 01-1.515-2.42 11.08 11.08 0 01-1.514 2.42c-1.396 1.69-3.986 3.704-8.391 3.704-3.946 0-10.008-1.87-15.186-7.115-3.984-4.035-8.734-11.485-8.734-24.051 0-5.388 1.006-10.387 2.99-14.86a31.592 31.592 0 017.694-10.65 32.947 32.947 0 0110.453-6.395c3.663-1.396 7.568-2.133 11.293-2.133h2.79c3.725 0 7.63.737 11.293 2.133a32.94 32.94 0 0110.453 6.394 31.57 31.57 0 017.694 10.652c1.984 4.472 2.99 9.471 2.99 14.859 0 12.566-4.749 20.015-8.734 24.05-5.177 5.246-11.24 7.115-15.185 7.115zM49.648 13.333a.776.776 0 01-.776-.777V.776a.777.777 0 011.553 0v11.78c0 .43-.348.777-.776.777zM30.46 17.645a.775.775 0 01-.673-.389l-5.89-10.2a.777.777 0 011.345-.777l5.89 10.201a.777.777 0 01-.672 1.165zM15.897 32.733a.77.77 0 01-.387-.104l-10.202-5.89a.777.777 0 01.777-1.345l10.201 5.89a.777.777 0 01-.389 1.449zM12.556 52.375H.776a.777.777 0 010-1.553h11.78a.776.776 0 110 1.553zM7.687 77.08a.775.775 0 01-.39-1.448l10.203-5.89a.776.776 0 11.776 1.345l-10.202 5.89a.774.774 0 01-.387.103zM26.832 94a.775.775 0 01-.672-1.165l5.89-10.2a.775.775 0 111.345.776l-5.89 10.2a.775.775 0 01-.673.389zM75.905 92.248a.777.777 0 01-.673-.389l-5.89-10.201a.777.777 0 011.346-.777l5.889 10.201a.776.776 0 01-.672 1.166zM93.612 73.867a.774.774 0 01-.388-.104l-10.2-5.89a.777.777 0 01.775-1.345l10.202 5.89a.775.775 0 01-.39 1.45zM98.921 48.87h-11.78a.776.776 0 110-1.553h11.78a.777.777 0 010 1.553zM81.425 30.153a.777.777 0 01-.389-1.45l10.202-5.89a.777.777 0 01.777 1.345l-10.202 5.89a.77.77 0 01-.388.105zM67.751 16.671a.776.776 0 01-.672-1.165l5.89-10.201a.777.777 0 011.345.776l-5.89 10.202a.779.779 0 01-.673.388zM40.429 14.007c-.351 0-.67-.24-.755-.596l-1.41-5.881a.776.776 0 111.51-.362l1.41 5.881a.777.777 0 01-.755.958zM22.024 24.843a.772.772 0 01-.549-.228l-4.06-4.06a.777.777 0 011.097-1.099l4.062 4.061a.777.777 0 01-.55 1.326zM13.16 42.03a.78.78 0 01-.201-.027L7.424 40.52a.777.777 0 01.402-1.5l5.534 1.483a.777.777 0 01-.2 1.526zM7.993 63.762a.777.777 0 01-.203-1.526l6.095-1.65a.777.777 0 01.406 1.498l-6.094 1.65a.773.773 0 01-.204.028zM19.652 84.024a.777.777 0 01-.558-1.317l4.915-5.07a.777.777 0 011.115 1.081l-4.915 5.07a.775.775 0 01-.557.236zM82.671 80.144a.771.771 0 01-.548-.227l-4.476-4.476a.777.777 0 011.099-1.098l4.475 4.476a.776.776 0 01-.55 1.325zM92.25 59.88a.781.781 0 01-.162-.017l-5.996-1.274a.776.776 0 11.323-1.518l5.995 1.274a.777.777 0 01-.16 1.536zM86.152 39.17a.775.775 0 01-.2-1.527l5.22-1.398a.776.776 0 01.4 1.5l-5.219 1.398a.785.785 0 01-.2.027zM75.322 22.738a.777.777 0 01-.529-1.346l4.36-4.05a.777.777 0 011.057 1.139l-4.36 4.05a.774.774 0 01-.528.207zM59.017 13.884a.775.775 0 01-.755-.961l1.426-5.808a.777.777 0 011.509.37l-1.427 5.808a.776.776 0 01-.753.59z"/></svg>