<svg xmlns="http://www.w3.org/2000/svg" fill="none" viewBox="0 0 94 94"><path fill="#9ABC88" d="M38.309 71.588c-2.48 0-5.212-.875-7.535-2.448-3.21-2.173-5.265-5.444-5.785-9.212a1.311 1.311 0 112.599-.359c.98 7.102 7.996 9.815 11.648 9.337 7.52-.982 11.113-4.406 10.675-10.177-.24-3.176-1.791-5.486-4.61-6.865-2.188-1.071-4.294-1.168-4.315-1.17a1.312 1.312 0 01-.291-2.575c2.696-.735 3.905-3.473 4.136-5.791.267-2.66-.608-5.918-3.164-7.203-2.92-1.466-5.916-.637-7.746.627-1.286.888-2.142 2.45-2.151 2.466a1.311 1.311 0 11-2.314-1.237c.047-.086 1.15-2.127 2.974-3.387 2.448-1.692 6.47-2.794 10.414-.813 1.668.838 2.978 2.287 3.789 4.19.716 1.684 1.002 3.68.808 5.618-.254 2.544-1.259 4.706-2.79 6.19a14 14 0 011.803.728c3.661 1.792 5.761 4.913 6.073 9.023.174 2.31-.177 4.376-1.044 6.14-.76 1.542-1.916 2.86-3.438 3.92-2.127 1.48-4.976 2.461-8.47 2.917-.412.055-.835.081-1.266.081z"/><path fill="#9ABC88" d="M60.393 63.733c-3.81 0-6.829-3.385-6.976-3.553a1.312 1.312 0 011.972-1.73c.029.033 3.125 3.478 6.163 2.474 2.927-.967 5.743-3.945 4.87-9.404-.69-3.755-3.544-7.451-8.19-6.702-2.323.374-3.053 1.18-4.063 2.297-.745.822-1.589 1.755-3.094 2.526-3.593 1.84-9.014.904-9.243.863a1.311 1.311 0 11.46-2.583c.098.018 4.8.813 7.587-.614 1.079-.553 1.694-1.233 2.345-1.952 1.106-1.221 2.358-2.606 5.59-3.127 6.11-.984 10.253 3.7 11.19 8.835l.004.026c.482 2.994.06 5.747-1.218 7.961-1.202 2.082-3.075 3.591-5.415 4.364-.676.224-1.34.32-1.982.32zM54.693 37.35c-6.135 0-9.076-6.091-9.198-6.35a1.312 1.312 0 012.372-1.122c.038.08 2.386 4.848 6.827 4.848h.016c4.199-.011 5.79-2.698 6.281-3.853a1.312 1.312 0 012.414 1.025c-.54 1.275-2.766 5.435-8.688 5.451h-.024z"/><path fill="#9ABC88" d="M54.53 28.744a.434.434 0 00-.403.605c.026.063.091.176.237.235a.43.43 0 00.568-.24.432.432 0 00-.238-.567.416.416 0 00-.165-.033zm-.001 3.497c-.398 0-.786-.077-1.156-.227a3.038 3.038 0 01-1.664-1.648 3.041 3.041 0 01-.012-2.341 3.048 3.048 0 012.832-1.904c.397 0 .786.076 1.156.227a3.038 3.038 0 011.664 1.648 3.04 3.04 0 01.012 2.34 3.05 3.05 0 01-2.832 1.905z"/><path fill="#9ABC88" d="M22.584 10.678c-6.556 0-11.89 5.334-11.89 11.892v48.838c0 6.557 5.333 11.892 11.89 11.892H71.42c6.556 0 11.89-5.335 11.89-11.892V22.57c0-6.558-5.334-11.893-11.89-11.893H22.584zm48.835 74.37H22.584c-7.52 0-13.64-6.118-13.64-13.64V22.57c0-7.522 6.12-13.641 13.64-13.641H71.42c7.52 0 13.64 6.119 13.64 13.64v48.839c0 7.522-6.12 13.64-13.64 13.64z"/><path fill="#9ABC88" d="M38.074 1.749a11.933 11.933 0 00-10.309 5.947L3.347 49.992a11.818 11.818 0 00-1.188 9.024 11.816 11.816 0 005.541 7.22l42.292 24.42a11.89 11.89 0 005.934 1.595c4.24 0 8.192-2.279 10.31-5.948l24.417-42.295a11.818 11.818 0 001.187-9.024 11.812 11.812 0 00-5.54-7.22L44.01 3.343a11.892 11.892 0 00-5.935-1.595zM55.926 94c-2.381 0-4.736-.632-6.809-1.83L6.826 67.752A13.546 13.546 0 01.47 59.47a13.553 13.553 0 011.362-10.352L26.251 6.822A13.687 13.687 0 0138.074 0c2.381 0 4.736.632 6.809 1.83l42.291 24.419a13.549 13.549 0 016.355 8.282c.944 3.52.46 7.196-1.362 10.352L67.749 87.178A13.69 13.69 0 0155.926 94z"/><path fill="#9ABC88" d="M55.925 1.749a11.89 11.89 0 00-5.933 1.595L7.7 27.764a11.811 11.811 0 00-5.54 7.22 11.813 11.813 0 001.187 9.024l24.418 42.295a11.935 11.935 0 0010.31 5.948c2.073 0 4.125-.552 5.933-1.596L86.3 66.237c5.678-3.279 7.63-10.566 4.353-16.245L66.234 7.696a11.935 11.935 0 00-10.31-5.947zM38.075 94a13.688 13.688 0 01-11.824-6.822L1.833 44.883A13.553 13.553 0 01.471 34.53a13.55 13.55 0 016.355-8.282l42.291-24.42A13.633 13.633 0 0155.925 0c4.864 0 9.395 2.614 11.824 6.822l24.418 42.296c3.76 6.514 1.52 14.872-4.993 18.633l-42.291 24.42A13.646 13.646 0 0138.074 94z"/></svg>