<svg xmlns="http://www.w3.org/2000/svg" fill="none" viewBox="0 0 51 45"><path fill="#9ABC88" d="M8.051 37.862c1.146.015 2.38.827 2.38 2.571 0 1.755-1.232 2.554-2.378 2.554h-.002a2.359 2.359 0 01-1.7-.663c-.477-.465-.729-1.119-.729-1.89 0-1.767 1.26-2.572 2.429-2.572zm.037-2.012c-1.92 0-4.05 1.067-4.553 3.446H2.186V36.06H0v8.746h2.186v-3.533h1.288c.396 2.572 2.57 3.726 4.58 3.726 2.231 0 4.633-1.429 4.633-4.566 0-3.124-2.383-4.565-4.599-4.583zM16.53 41.063h1.428c.996 0 1.92.12 1.92.996 0 .906-.83.98-1.833.98h-1.514v-1.977zm1.34-1.61h-1.34v-1.697h1.34c1.088 0 1.532.249 1.532.858 0 .596-.444.839-1.533.839zm2.835.647c.59-.337.9-.91.9-1.679 0-2.379-2.499-2.379-3.841-2.379h-3.42v8.78h3.896c1.144 0 3.824 0 3.824-2.57 0-.983-.511-1.777-1.359-2.152zM27.739 37.652c.674 0 1.271.217 1.639.595a1.5 1.5 0 01.423 1.032h-4.33c.352-1.339 1.417-1.627 2.268-1.627zm.018-1.785c-2.231 0-4.508 1.357-4.565 4.386-.042 1.364.39 2.54 1.248 3.398.872.872 2.136 1.349 3.565 1.349.04 0 .082 0 .122-.002 1.046 0 2.208-.259 3.271-.73l.114-.05-.303-1.737-.186.082c-.918.4-1.903.566-3.02.512-1.499 0-2.525-.851-2.602-2.135h6.24l.025-.126c.303-1.507.075-2.773-.662-3.66-.698-.842-1.82-1.287-3.247-1.287zM35.616 40.919v-4.86H33.43v8.764h.751l5.187-4.897v4.88h2.169v-8.764h-.823l-5.098 4.877zM48.743 37.844v2.414h-1.62c-.861 0-1.462-.482-1.462-1.172 0-.743.588-1.242 1.462-1.242h1.62zm-2.167-1.785c-1.828.018-3.154 1.276-3.154 2.992 0 1.113.704 2.155 1.737 2.605l-2.125 2.729v.42h2.301l2.044-2.71h1.364v2.71H51V36.06h-4.424zM24.015 19.35a1.278 1.278 0 001.604-.81c.046-.144.11-.687.125-.824.291-2.75 2.106-4.641 4.695-4.641 3.31 0 6.004 2.663 6.004 5.936 0 4.144-3.41 7.515-7.602 7.515-4.534 0-8.337-3.14-9.308-7.335 1.514-.31 3.043-.3 4.482.16zm-13.17 8.156c-.156.545-.598.802-.966.813-.335.002-.562-.159-.69-.52-.137-.381.261-1.917 2.302-4.037a16.92 16.92 0 01-.646 3.744zM31.217 2.774c-7.981 0-14.475 6.42-14.475 14.31 0 .107.006.213.009.32a18.73 18.73 0 00-3.295 1.626c-.905-3.416-2.955-6.563-6.09-9.252a1.284 1.284 0 00-1.797.126 1.249 1.249 0 00.128 1.777c3.057 2.623 4.913 5.649 5.526 8.95A19.6 19.6 0 009.726 22c-1.151 1.17-3.735 4.148-2.878 6.546.475 1.328 1.658 2.17 3.03 2.17.036 0 .072 0 .107-.002 1.533-.048 2.853-1.093 3.285-2.6.623-2.175.838-4.313.66-6.378.985-.7 2.057-1.309 3.17-1.778 1.305 5.211 6.073 9.086 11.742 9.086 5.597 0 10.15-4.5 10.15-10.034 0-4.662-3.836-8.455-8.552-8.455-3.61 0-6.61 2.624-7.154 6.044-1.315-.206-2.658-.155-3.985.092.211-6.32 5.474-11.399 11.917-11.399 7.345 0 13.55 6.21 13.55 13.561 0 5.17-2.994 10.178-7.63 12.756a1.251 1.251 0 00-.486 1.715 1.282 1.282 0 001.735.48c5.424-3.017 8.93-8.885 8.93-14.951 0-8.716-7.373-16.08-16.099-16.08z"/><path fill="#9ABC88" d="M19.983.359c-4.46-1.519-8.575 1.92-7.075 7.683C18.1 7.13 17.363 2.653 19.983.36z"/></svg>